<mxfile host="app.diagrams.net" modified="2021-03-10T13:30:31.865Z" agent="5.0 (Windows NT 10.0; Win64; x64) AppleWebKit/537.36 (KHTML, like Gecko) Chrome/88.0.4324.190 Safari/537.36" etag="RTOnpf9zkNnyd-4vRvxz" version="14.4.3" type="github">
  <diagram id="YCCxi22FjPyb5VRj1dEs" name="Page-1">
    <mxGraphModel dx="2249" dy="762" grid="1" gridSize="10" guides="1" tooltips="1" connect="1" arrows="1" fold="1" page="1" pageScale="1" pageWidth="827" pageHeight="1169" math="0" shadow="0">
      <root>
        <mxCell id="0" />
        <mxCell id="1" parent="0" />
        <mxCell id="pQOtjpUvV1r9HIE-idm4-6" value="inicio" style="rounded=0;whiteSpace=wrap;html=1;" vertex="1" parent="1">
          <mxGeometry x="650" y="30" width="120" height="60" as="geometry" />
        </mxCell>
        <mxCell id="pQOtjpUvV1r9HIE-idm4-7" value="verdadeiro" style="rounded=0;whiteSpace=wrap;html=1;" vertex="1" parent="1">
          <mxGeometry x="100" y="450" width="120" height="60" as="geometry" />
        </mxCell>
        <mxCell id="pQOtjpUvV1r9HIE-idm4-8" value="saida&lt;br&gt;" style="shape=document;whiteSpace=wrap;html=1;boundedLbl=1;" vertex="1" parent="1">
          <mxGeometry x="640" y="390" width="120" height="80" as="geometry" />
        </mxCell>
        <mxCell id="pQOtjpUvV1r9HIE-idm4-9" value="processamento&lt;br&gt;" style="rounded=0;whiteSpace=wrap;html=1;" vertex="1" parent="1">
          <mxGeometry x="650" y="210" width="120" height="60" as="geometry" />
        </mxCell>
        <mxCell id="pQOtjpUvV1r9HIE-idm4-19" value="verdadeiro" style="edgeStyle=orthogonalEdgeStyle;rounded=0;orthogonalLoop=1;jettySize=auto;html=1;" edge="1" parent="1" source="pQOtjpUvV1r9HIE-idm4-10" target="pQOtjpUvV1r9HIE-idm4-18">
          <mxGeometry relative="1" as="geometry" />
        </mxCell>
        <mxCell id="pQOtjpUvV1r9HIE-idm4-22" value="falso" style="edgeStyle=orthogonalEdgeStyle;rounded=0;orthogonalLoop=1;jettySize=auto;html=1;" edge="1" parent="1" source="pQOtjpUvV1r9HIE-idm4-10" target="pQOtjpUvV1r9HIE-idm4-21">
          <mxGeometry relative="1" as="geometry" />
        </mxCell>
        <mxCell id="pQOtjpUvV1r9HIE-idm4-10" value="resto da divisão é zero&lt;br&gt;" style="rhombus;whiteSpace=wrap;html=1;" vertex="1" parent="1">
          <mxGeometry x="120" y="330" width="80" height="80" as="geometry" />
        </mxCell>
        <mxCell id="pQOtjpUvV1r9HIE-idm4-12" value="decisão&lt;br&gt;" style="rounded=1;whiteSpace=wrap;html=1;" vertex="1" parent="1">
          <mxGeometry x="640" y="300" width="120" height="60" as="geometry" />
        </mxCell>
        <mxCell id="pQOtjpUvV1r9HIE-idm4-14" value="entrada&lt;br&gt;" style="shape=parallelogram;perimeter=parallelogramPerimeter;whiteSpace=wrap;html=1;fixedSize=1;" vertex="1" parent="1">
          <mxGeometry x="640" y="490" width="120" height="60" as="geometry" />
        </mxCell>
        <mxCell id="pQOtjpUvV1r9HIE-idm4-26" style="edgeStyle=orthogonalEdgeStyle;rounded=0;orthogonalLoop=1;jettySize=auto;html=1;exitX=0.5;exitY=1;exitDx=0;exitDy=0;entryX=0.5;entryY=0;entryDx=0;entryDy=0;" edge="1" parent="1" source="pQOtjpUvV1r9HIE-idm4-15" target="pQOtjpUvV1r9HIE-idm4-16">
          <mxGeometry relative="1" as="geometry" />
        </mxCell>
        <mxCell id="pQOtjpUvV1r9HIE-idm4-15" value="numero&lt;br&gt;" style="shape=parallelogram;perimeter=parallelogramPerimeter;whiteSpace=wrap;html=1;fixedSize=1;" vertex="1" parent="1">
          <mxGeometry x="100" y="150" width="120" height="60" as="geometry" />
        </mxCell>
        <mxCell id="pQOtjpUvV1r9HIE-idm4-27" style="edgeStyle=orthogonalEdgeStyle;rounded=0;orthogonalLoop=1;jettySize=auto;html=1;exitX=0.5;exitY=1;exitDx=0;exitDy=0;" edge="1" parent="1" source="pQOtjpUvV1r9HIE-idm4-16" target="pQOtjpUvV1r9HIE-idm4-10">
          <mxGeometry relative="1" as="geometry" />
        </mxCell>
        <mxCell id="pQOtjpUvV1r9HIE-idm4-16" value="&amp;nbsp;divide o número por 2" style="rounded=0;whiteSpace=wrap;html=1;" vertex="1" parent="1">
          <mxGeometry x="100" y="240" width="120" height="60" as="geometry" />
        </mxCell>
        <mxCell id="pQOtjpUvV1r9HIE-idm4-25" style="edgeStyle=orthogonalEdgeStyle;rounded=0;orthogonalLoop=1;jettySize=auto;html=1;exitX=0.5;exitY=1;exitDx=0;exitDy=0;entryX=0.575;entryY=0.017;entryDx=0;entryDy=0;entryPerimeter=0;" edge="1" parent="1" source="pQOtjpUvV1r9HIE-idm4-17" target="pQOtjpUvV1r9HIE-idm4-15">
          <mxGeometry relative="1" as="geometry" />
        </mxCell>
        <mxCell id="pQOtjpUvV1r9HIE-idm4-17" value="inicio" style="rounded=0;whiteSpace=wrap;html=1;" vertex="1" parent="1">
          <mxGeometry x="110" y="50" width="120" height="60" as="geometry" />
        </mxCell>
        <mxCell id="pQOtjpUvV1r9HIE-idm4-20" style="edgeStyle=orthogonalEdgeStyle;rounded=0;orthogonalLoop=1;jettySize=auto;html=1;exitX=1;exitY=0.75;exitDx=0;exitDy=0;entryX=0;entryY=0.75;entryDx=0;entryDy=0;" edge="1" parent="1" source="pQOtjpUvV1r9HIE-idm4-18" target="pQOtjpUvV1r9HIE-idm4-7">
          <mxGeometry relative="1" as="geometry" />
        </mxCell>
        <mxCell id="pQOtjpUvV1r9HIE-idm4-18" value="é par" style="shape=document;whiteSpace=wrap;html=1;boundedLbl=1;" vertex="1" parent="1">
          <mxGeometry x="-60" y="330" width="120" height="80" as="geometry" />
        </mxCell>
        <mxCell id="pQOtjpUvV1r9HIE-idm4-23" style="edgeStyle=orthogonalEdgeStyle;rounded=0;orthogonalLoop=1;jettySize=auto;html=1;" edge="1" parent="1" source="pQOtjpUvV1r9HIE-idm4-21" target="pQOtjpUvV1r9HIE-idm4-7">
          <mxGeometry relative="1" as="geometry">
            <mxPoint x="310" y="530" as="targetPoint" />
            <Array as="points">
              <mxPoint x="340" y="470" />
              <mxPoint x="250" y="470" />
              <mxPoint x="250" y="530" />
              <mxPoint x="160" y="530" />
            </Array>
          </mxGeometry>
        </mxCell>
        <mxCell id="pQOtjpUvV1r9HIE-idm4-21" value="impar" style="shape=document;whiteSpace=wrap;html=1;boundedLbl=1;" vertex="1" parent="1">
          <mxGeometry x="280" y="330" width="120" height="80" as="geometry" />
        </mxCell>
        <mxCell id="pQOtjpUvV1r9HIE-idm4-28" value="número&lt;br&gt;" style="shape=parallelogram;perimeter=parallelogramPerimeter;whiteSpace=wrap;html=1;fixedSize=1;" vertex="1" parent="1">
          <mxGeometry x="640" y="120" width="120" height="60" as="geometry" />
        </mxCell>
        <mxCell id="pQOtjpUvV1r9HIE-idm4-29" value="decisão&lt;br&gt;" style="rhombus;whiteSpace=wrap;html=1;" vertex="1" parent="1">
          <mxGeometry x="670" y="585" width="80" height="80" as="geometry" />
        </mxCell>
      </root>
    </mxGraphModel>
  </diagram>
</mxfile>
